<?xml version="1.0" encoding="utf-8"?>
<!-- Generator: Adobe Illustrator 20.1.0, SVG Export Plug-In . SVG Version: 6.00 Build 0)  -->
<svg version="1.1" xmlns="http://www.w3.org/2000/svg" xmlns:xlink="http://www.w3.org/1999/xlink" x="0px" y="0px"
	 viewBox="0 0 576 576" style="enable-background:new 0 0 576 576;" xml:space="preserve">
<style type="text/css">
	.st0{fill:#F48120;}
	.st1{fill:#C36828;}
	.st2{fill:#6D4D13;}
	.st3{fill:#FFFFFF;}
	.st4{fill:#D3E5E3;}
	.st5{fill:#757F7E;}
	.st6{fill:#B3C4C3;}
	.st7{fill:#484A4D;}
	.st8{fill:#CCCCCC;}
	.st9{fill:#00A657;}
</style>
<g id="Layer_1">
	<g>
		<circle class="st0" cx="288.3" cy="289.6" r="273.5"/>
	</g>
</g>
<g id="task">
	<path class="st1" d="M561.7,298.1L412.4,148.8c-2-2-4.7-3.2-7.7-3.2h-31.9l-16.5-16.5c-1.7-1.7-4.5-2.5-8.5-2.5h-19.9l-23.1-23.1
		c-4.5-4.6-10.8-7.4-17.7-7.4c-13.8,0-25.1,11.2-25.1,25.1c0,4.2-3,5.4-8.7,5.4h-27c-8.1,0-11,2.9-11,11v8h-45.9
		c-6.1,0-11,4.9-11,11v278.7c0,3,1.2,5.7,3.2,7.7L281.4,563c2.3,0.1,4.6,0.1,6.9,0.1C436.5,563.1,557.1,445.2,561.7,298.1z
		 M287,131.9c-5.9,0-10.6-4.7-10.6-10.6c0-5.9,4.7-10.6,10.6-10.6c5.9,0,10.6,4.7,10.6,10.6C297.6,127.1,292.8,131.9,287,131.9z"/>
	<path class="st2" d="M404.6,446.3H169.3c-6.1,0-11-4.9-11-11V156.6c0-6.1,4.9-11,11-11h235.3c6.1,0,11,4.9,11,11v278.7
		C415.6,441.4,410.7,446.3,404.6,446.3z"/>
	<rect x="175.1" y="159.7" class="st3" width="223.7" height="272.6"/>
	<g>
		<g>
			<path class="st4" d="M347.7,126.7h-27c-5.7,0-8.7-1.2-8.7-5.4c0-13.8-11.2-25.1-25.1-25.1c-13.8,0-25.1,11.2-25.1,25.1
				c0,4.2-3,5.4-8.7,5.4h-27c-8.1,0-11,2.9-11,11V177H287h71.7v-39.3C358.7,129.6,355.8,126.7,347.7,126.7z M287,131.9
				c-5.9,0-10.6-4.7-10.6-10.6c0-5.9,4.7-10.6,10.6-10.6c5.9,0,10.6,4.7,10.6,10.6C297.6,127.1,292.8,131.9,287,131.9z"/>
			<rect x="215.2" y="163.6" class="st5" width="143.5" height="13.4"/>
			<rect x="215.2" y="141.3" class="st6" width="143.5" height="22.3"/>
		</g>
		<g>
			<path class="st6" d="M287,105.9c-8.5,0-15.4,6.9-15.4,15.4c0,8.5,6.9,15.4,15.4,15.4c8.5,0,15.4-6.9,15.4-15.4
				C302.3,112.8,295.4,105.9,287,105.9z M287,131.9c-5.9,0-10.6-4.7-10.6-10.6c0-5.9,4.7-10.6,10.6-10.6c5.9,0,10.6,4.7,10.6,10.6
				C297.6,127.1,292.8,131.9,287,131.9z"/>
		</g>
	</g>
	<g>
		<g>
			<g>
				<path class="st7" d="M198.6,253.1V210h41.5v40.7v2.4H198.6L198.6,253.1z M237.7,250.7v-2.4V250.7L237.7,250.7z M203.3,248.3h32
					v-33.6h-32V248.3L203.3,248.3z"/>
			</g>
			<polygon class="st8" points="226.4,236.6 215.8,225.9 210.5,231.1 226.4,247 256,217.5 250.8,212.3 			"/>
			<polygon class="st9" points="222.8,233 212.1,222.3 206.9,227.5 222.8,243.4 252.3,213.8 247.1,208.6 			"/>
			<rect x="269.4" y="242.2" class="st8" width="100.9" height="14.5"/>
			<rect x="269.4" y="213.7" class="st8" width="100.9" height="14.5"/>
			<rect x="265.7" y="238.5" class="st7" width="100.9" height="14.5"/>
			<rect x="265.7" y="210" class="st7" width="100.9" height="14.5"/>
		</g>
		<g>
			<g>
				<path class="st7" d="M198.6,328.6v-43.1h41.5v40.7v2.4H198.6L198.6,328.6z M237.7,326.2v-2.4V326.2L237.7,326.2z M203.3,323.9
					h32v-33.6h-32V323.9L203.3,323.9z"/>
			</g>
			<polygon class="st8" points="226.4,312.2 215.8,301.5 210.5,306.7 226.4,322.6 256,293 250.8,287.8 			"/>
			<polygon class="st9" points="222.8,308.5 212.1,297.8 206.9,303 222.8,318.9 252.3,289.4 247.1,284.1 			"/>
			<rect x="269.4" y="317.7" class="st8" width="100.9" height="14.5"/>
			<rect x="269.4" y="289.2" class="st8" width="100.9" height="14.5"/>
			<rect x="265.7" y="314.1" class="st7" width="100.9" height="14.5"/>
			<rect x="265.7" y="285.5" class="st7" width="100.9" height="14.5"/>
		</g>
		<g>
			<g>
				<path class="st7" d="M198.6,404.1v-43.1h41.5v40.7v2.4H198.6L198.6,404.1z M237.7,401.8v-2.4V401.8L237.7,401.8z M203.3,399.4
					h32v-33.6h-32V399.4L203.3,399.4z"/>
			</g>
			<polygon class="st8" points="226.4,387.7 215.8,377 210.5,382.2 226.4,398.1 256,368.5 250.8,363.3 			"/>
			<polygon class="st9" points="222.8,384 212.1,373.3 206.9,378.6 222.8,394.4 252.3,364.9 247.1,359.7 			"/>
			<rect x="269.4" y="393.3" class="st8" width="100.9" height="14.5"/>
			<rect x="269.4" y="364.7" class="st8" width="100.9" height="14.5"/>
			<rect x="265.7" y="389.6" class="st7" width="100.9" height="14.5"/>
			<rect x="265.7" y="361.1" class="st7" width="100.9" height="14.5"/>
		</g>
	</g>
</g>
</svg>
