<svg xmlns="http://www.w3.org/2000/svg" viewBox="0 0 18 18" xmlns:xlink="http://www.w3.org/1999/xlink"><desc>Created using Figma</desc><g><g transform="translate(307 84)"><mask id="b"><use fill="#fff" xlink:href="#a" transform="translate(-307 -84)"/></mask><g mask="url(#b)"><use fill="#00A657" xlink:href="#c" transform="translate(-307 -84)"/></g></g><g transform="translate(307 84)"><use fill="#00A657" xlink:href="#d" transform="matrix(0 1 -.99582 -.0913 -299 -80)"/></g><g transform="translate(307 84)"><use fill="#00A657" xlink:href="#d" transform="matrix(-1 0 .0913 -.99582 -293 -76)"/></g></g><defs><path id="a" d="M18 9c0 4.9706-4.0294 9-9 9-4.97056 0-9-4.0294-9-9 0-4.97056 4.02944-9 9-9 4.9706 0 9 4.02944 9 9z"/><path id="c" d="M16 9c0 3.866-3.134 7-7 7v4c6.0751 0 11-4.9249 11-11h-4zm-7 7c-3.86599 0-7-3.134-7-7h-4c0 6.0751 4.92487 11 11 11v-4zM2 9c0-3.86599 3.13401-7 7-7v-4C2.92487-2-2 2.92487-2 9h4zm7-7c3.866 0 7 3.13401 7 7h4C20 2.92487 15.0751-2 9-2v4z"/><path id="d" d="M1-2c-.552285 0-1 .44772-1 1 0 .552285.447715 1 1 1v-2zm8 2c.55229 0 1-.447715 1-1 0-.55228-.44771-1-1-1v2zM1 0h8v-2H1v2z"/></defs></svg>