<svg xmlns="http://www.w3.org/2000/svg" viewBox="0 0 21 22" xmlns:xlink="http://www.w3.org/1999/xlink"><desc>Created using Figma</desc><g fill="#5A5E64" transform="translate(.54 .5)"><use xlink:href="#a"/><use xlink:href="#b"/><use xlink:href="#c"/><use xlink:href="#d"/><use xlink:href="#e"/><use xlink:href="#f"/><use xlink:href="#g"/><use xlink:href="#h"/><use xlink:href="#i"/><use xlink:href="#j"/><use xlink:href="#k"/><use xlink:href="#l"/></g><defs><path id="a" d="M19 2.8v16.7H1V2.8h18zm1-1H0v18.7h20V1.8z"/><path id="b" fill-rule="evenodd" d="M0 6.9h20v1H0v-1z"/><path id="c" fill-rule="evenodd" d="M4.5 0c.276 0 .5.224.5.5v3.8c0 .2762-.224.5-.5.5S4 4.5762 4 4.3V.5c0-.276.224-.5.5-.5z"/><path id="d" fill-rule="evenodd" d="M15.5 0c.276 0 .5.224.5.5v3.8c0 .2762-.224.5-.5.5s-.5-.2238-.5-.5V.5c0-.276.224-.5.5-.5z"/><path id="e" d="M8.8 10.5H7.3V12h1.5v-1.5z"/><path id="f" d="M4.9 10.5H3.4V12h1.5v-1.5z"/><path id="g" d="M12.7 10.5h-1.5V12h1.5v-1.5z"/><path id="h" d="M16.6 10.5h-1.5V12h1.5v-1.5z"/><path id="i" d="M8.8 14.5H7.3V16h1.5v-1.5z"/><path id="j" d="M4.9 14.5H3.4V16h1.5v-1.5z"/><path id="k" d="M12.7 14.5h-1.5V16h1.5v-1.5z"/><path id="l" d="M16.6 14.5h-1.5V16h1.5v-1.5z"/></defs></svg>