<svg xmlns="http://www.w3.org/2000/svg" viewBox="0 0 20 21" xmlns:xlink="http://www.w3.org/1999/xlink"><desc>Created using Figma</desc><g fill="#5A5E64"><use xlink:href="#a"/><use xlink:href="#b"/></g><defs><path id="a" fill-rule="evenodd" d="M11.9 1.4c3.7 0 6.7 3 6.7 6.74 0 3.72-3 6.74-6.7 6.74s-6.7-3.02-6.7-6.74c0-3.73 3-6.74 6.7-6.74zM20 8.14C20 3.64 16.37 0 11.9 0 7.42 0 3.8 3.64 3.8 8.14s3.62 8.14 8.1 8.14c4.47 0 8.1-3.65 8.1-8.14z"/><path id="b" fill-rule="evenodd" d="M7.1 12.86c-.26-.28-.7-.28-.97 0L.2 18.8c-.27.28-.27.72 0 1 .27.27.7.27 1 0l5.9-5.96c.28-.27.28-.7 0-.98z"/></defs></svg>