<?xml version="1.0" encoding="utf-8"?>
<!-- Generator: Adobe Illustrator 20.1.0, SVG Export Plug-In . SVG Version: 6.00 Build 0)  -->
<svg version="1.1" id="Layer_1" xmlns="http://www.w3.org/2000/svg" xmlns:xlink="http://www.w3.org/1999/xlink" x="0px" y="0px"
	 viewBox="0 0 186.5 50.3" style="enable-background:new 0 0 186.5 50.3;" xml:space="preserve">
<style type="text/css">
	.st0{fill:#FFFFFF;}
	.st1{fill:#989898;}
	.st2{fill:#BFD959;}
	.st3{fill:#026B4E;}
	.st4{fill:#00A657;}
</style>
<g>
	<g>
		<path class="st0" d="M68.7,20.4c3.2,0,6.6,0.5,9.6,3.3c2.1,2.1,3.5,4.9,3.5,8.7c0,3.8-1.3,6.6-3.3,8.6c-3.3,3.4-7.5,3.6-9.6,3.6
			h-7.9V20.4H68.7z M66.7,40h1.5c1.2,0,3.7-0.1,5.5-1.6c1.3-1.1,2.4-3.2,2.4-5.9c0-2.6-1.1-4.3-2-5.2c-1.8-1.8-4.2-2.1-5.9-2.1h-1.5
			V40z"/>
		<path class="st0" d="M98.7,25.1h-8.1v4.7h7.7v4.7h-7.7V40h8.1v4.7H85V20.4h13.7V25.1z"/>
		<path class="st0" d="M117.1,40.1h-9.2l-1.9,4.6h-5.8l9.8-24.3h5.1l9.6,24.3h-5.8L117.1,40.1z M115.5,35.8l-3-8.2l-3,8.2H115.5z"/>
		<path class="st0" d="M132.3,20.4V40h7.5v4.7h-13.1V20.4H132.3z"/>
		<path class="st0" d="M155.7,20.4v24.3h-5.6V20.4H155.7z"/>
		<path class="st0" d="M178.8,43.3c-1.2,0.9-3.1,1.9-6.8,1.9c-3.8,0-6.6-1.1-8.9-3.5c-2.8-2.8-3.8-6.2-3.8-9.2c0-3.6,1.6-6.9,3.7-9
			c2.1-2.1,5.3-3.6,9.5-3.6c3.7,0,7.1,1.3,9.4,3.5c2.2,2.1,3.8,5.2,3.8,9.2c0,1.8-0.4,3.3-1,4.7c-0.6,1.4-1.4,2.4-2.4,3.3l4.2,4.6
			l-5.3,0.7L178.8,43.3z M178.5,36.9c0.9-1.2,1.4-2.5,1.4-4.4c0-2.6-1.1-4.3-2.1-5.4c-1.4-1.4-3.3-2.1-5.3-2.1
			c-2.3,0-4.1,0.9-5.3,2.1c-1.4,1.4-2.1,3.6-2.1,5.5c0,2,0.7,3.9,2,5.3c1.2,1.2,2.9,2.1,5.2,2.1c1,0,2-0.2,2.9-0.6l-4.4-4.3l5.4-0.6
			L178.5,36.9z"/>
	</g>
	<g>
		<g>
			<path class="st1" d="M73.9,9.6C74.8,9.3,75,8.5,75,7.9c0-0.9-0.7-1.8-2.7-1.8l-3.7,0c0,0,0,6.9,0,7.1c0.2,0,3.7,0,3.7,0
				c2,0,2.7-1,2.7-2C75,10,73.9,9.6,73.9,9.6z M70.4,7.7h2.5h0l0,0c0.3,0,0.5,0.3,0.5,0.6c0,0.3-0.2,0.6-0.5,0.6l-2.5,0L70.4,7.7z
				 M72.7,11.6h-2.4v-1.2h2.4h0l0,0c0.3,0,0.5,0.3,0.5,0.6C73.3,11.3,73.1,11.6,72.7,11.6z"/>
		</g>
		<path class="st1" d="M83.3,6.1h6.3l0,1.6H85l0,1.1h4.1v1.6h-4.1v1.2h4.5l0,1.6c0,0-6,0-6.3,0C83.3,13.1,83.3,6.1,83.3,6.1z"/>
		<path class="st1" d="M79.7,6.2h-3.8v7.1c0,0,1.6,0,1.7,0c0-0.2,0-2.9,0-2.9l1.9,0c0.5,0,1,0.5,1,1v1.9l1.7,0l0-2.3
			c0-1.1-1-1.4-1-1.4s1.1-0.3,1.1-1.6C82.2,6.5,80.9,6.2,79.7,6.2z M80.6,8.4c0,0.2-0.3,0.5-0.6,0.5l-2.4,0V7.7h2.4
			c0.3,0,0.5,0.2,0.6,0.5V8.4z"/>
		<path class="st1" d="M67.5,11.6c0,0-2.4,0-3.2,0c-1.3-0.1-1.8-1.1-1.8-1.9c0-1,0.7-1.7,1.7-1.8c0.5-0.1,3.2,0,3.2,0l0.1,0l0-1.6
			l-0.1,0l-3.1,0c-0.3,0-0.9,0.1-1.5,0.3c-0.6,0.3-1,0.6-1.4,1.1c-0.5,0.6-0.7,1.4-0.7,2.1c0,0.2,0,0.5,0.1,0.7
			c0.2,1.1,0.9,2,1.9,2.5c0.3,0.2,0.9,0.3,1.9,0.4c0,0,0.6,0,0.6,0l2.1,0h0.1L67.5,11.6L67.5,11.6z"/>
	</g>
	<g>
		<path class="st2" d="M24.3,10.3c-1.1,1.2-2.6,1.8-4.1,1.8c-1.9-0.1-3.8,0-5.5,0.6c-2.5,0.7-4.9,2-6.8,4.1c-1.9,2.2-3.3,5-4.2,8.2
			C2.7,28.1,2.3,32.6,2.5,36C0.5,31.8,0,28.4,0,24.8c0-3.6,0.8-6.9,2.5-10.6c1.6-3.6,5.4-7.9,7.7-9.3c1.9-1.5,4.8-3,8.2-4
			c1.8-0.5,4.3,0.1,5.7,1.4l0,0C26.3,4.4,26.4,8,24.3,10.3L24.3,10.3z"/>
		<path class="st3" d="M12.8,33.2c1.6,0.3,2.9,1.3,3.6,2.7c0.9,1.7,1.9,3.3,3.3,4.5c1.8,1.8,4.1,3.3,7,3.8c2.8,0.6,6,0.4,9.2-0.4
			C39,43,43.1,41.2,46,39.3c-2.7,3.9-5.4,6-8.5,7.8c-3.1,1.8-6.4,2.7-10.4,3.1c-4,0.4-9.5-0.8-12-2c-2.2-0.9-5-2.6-7.6-5.1
			c-1.4-1.3-2.1-3.8-1.6-5.6l0,0C6.7,34.5,9.8,32.6,12.8,33.2L12.8,33.2z"/>
		<path class="st4" d="M38.4,31.8c-0.5-1.5-0.3-3.1,0.6-4.5c1-1.6,1.9-3.3,2.3-5.1c0.7-2.5,0.8-5.2-0.2-7.9c-0.9-2.7-2.7-5.4-5-7.8
			c-2.3-2.4-6-5-9-6.5c4.7,0.4,7.9,1.7,11,3.5c3.1,1.8,5.6,4.2,7.9,7.4c2.4,3.2,4.1,8.6,4.2,11.4c0.3,2.4,0.2,5.6-0.6,9.1
			c-0.4,1.8-2.2,3.7-4.1,4.2l0,0C42.5,36.4,39.4,34.7,38.4,31.8L38.4,31.8z"/>
		<circle class="st1" cx="25.2" cy="25.1" r="4.6"/>
	</g>
</g>
</svg>
