<?xml version="1.0" encoding="utf-8"?>
<!-- Generator: Adobe Illustrator 22.0.1, SVG Export Plug-In . SVG Version: 6.00 Build 0)  -->
<svg version="1.1" id="Layer_1" xmlns="http://www.w3.org/2000/svg" xmlns:xlink="http://www.w3.org/1999/xlink" x="0px" y="0px"
	 viewBox="0 0 186.5 50.3" style="enable-background:new 0 0 186.5 50.3;" xml:space="preserve">
<style type="text/css">
	.st0{fill:#757575;}
	.st1{fill:#BFD959;}
	.st2{fill:#026B4E;}
	.st3{fill:#00A657;}
	.st4{font-family:'LemonMilk';}
	.st5{font-size:20px;}
	.st6{letter-spacing:-1;}
</style>
<g>
	<g>
		<path class="st0" d="M73.9,10C74.8,9.7,75,8.9,75,8.3c0-0.9-0.7-1.8-2.7-1.8h-3.7c0,0,0,6.9,0,7.1c0.2,0,3.7,0,3.7,0
			c2,0,2.7-1,2.7-2C75.1,10.4,73.9,10,73.9,10z M70.4,8.1h2.5l0,0l0,0c0.3,0,0.5,0.3,0.5,0.6s-0.2,0.6-0.5,0.6h-2.5V8.1z M72.8,12
			h-2.4v-1.2h2.4l0,0l0,0c0.3,0,0.5,0.3,0.5,0.6C73.4,11.7,73.1,12,72.8,12z"/>
	</g>
	<path class="st0" d="M83.3,6.6h6.3v1.6h-4.5v1.1h4.1v1.6h-4.1v1.2h4.5v1.6c0,0-6,0-6.3,0C83.3,13.5,83.3,6.6,83.3,6.6z"/>
	<path class="st0" d="M79.7,6.6h-3.8v7.1c0,0,1.6,0,1.7,0c0-0.2,0-2.9,0-2.9h1.9c0.5,0,1,0.5,1,1v1.9h1.7v-2.3c0-1.1-1-1.4-1-1.4
		s1.1-0.3,1.1-1.6C82.3,6.9,80.9,6.6,79.7,6.6z M80.6,8.8c0,0.2-0.3,0.5-0.6,0.5h-2.4V8.1H80c0.3,0,0.5,0.2,0.6,0.5V8.8z"/>
	<path class="st0" d="M67.5,12c0,0-2.4,0-3.2,0c-1.3-0.1-1.8-1.1-1.8-1.9c0-1,0.7-1.7,1.7-1.8c0.5-0.1,3.2,0,3.2,0h0.1V6.7h-0.1
		h-3.1c-0.3,0-0.9,0.1-1.5,0.3c-0.6,0.3-1,0.6-1.4,1.1c-0.5,0.6-0.7,1.4-0.7,2.1c0,0.2,0,0.5,0.1,0.7c0.2,1.1,0.9,2,1.9,2.5
		c0.3,0.2,0.9,0.3,1.9,0.4h0.6h2.1h0.1L67.5,12L67.5,12z"/>
</g>
<g>
	<path class="st1" d="M24.3,10.7c-1.1,1.2-2.6,1.8-4.1,1.8c-1.9-0.1-3.8,0-5.5,0.6c-2.5,0.7-4.9,2-6.8,4.1c-1.9,2.2-3.3,5-4.2,8.2
		c-0.9,3.1-1.4,7.6-1.2,11C0.5,32.2,0,28.8,0,25.2s0.8-6.9,2.5-10.6c1.6-3.6,5.4-7.9,7.7-9.3c1.9-1.5,4.8-3,8.2-4
		c1.8-0.5,4.3,0.1,5.7,1.4l0,0C26.3,4.9,26.4,8.4,24.3,10.7L24.3,10.7z"/>
	<path class="st2" d="M12.8,33.7c1.6,0.3,2.9,1.3,3.6,2.7c0.9,1.7,1.9,3.3,3.3,4.5c1.8,1.8,4.1,3.3,7,3.8c2.8,0.6,6,0.4,9.2-0.4
		c3.2-0.8,7.3-2.7,10.2-4.6c-2.7,3.9-5.4,6-8.5,7.8s-6.4,2.7-10.4,3.1c-4,0.4-9.5-0.8-12-2c-2.2-0.9-5-2.6-7.6-5.1
		c-1.4-1.3-2.1-3.8-1.6-5.6l0,0C6.7,34.9,9.8,33,12.8,33.7L12.8,33.7z"/>
	<path class="st3" d="M38.4,32.2c-0.5-1.5-0.3-3.1,0.6-4.5c1-1.6,1.9-3.3,2.3-5.1c0.7-2.5,0.8-5.2-0.2-7.9c-0.9-2.7-2.7-5.4-5-7.8
		s-6-5-9-6.5c4.7,0.4,7.9,1.7,11,3.5s5.6,4.2,7.9,7.4c2.4,3.2,4.1,8.6,4.2,11.4c0.3,2.4,0.2,5.6-0.6,9.1c-0.4,1.8-2.2,3.7-4.1,4.2
		l0,0C42.5,36.8,39.4,35.1,38.4,32.2L38.4,32.2z"/>
	<circle class="st0" cx="25.2" cy="25.6" r="4.6"/>
</g>
<text transform="matrix(1 0 0 1 60.7 40.3997)" class="st4 st5 st6">vouchering</text>
</svg>
